<svg xmlns="http://www.w3.org/2000/svg" viewBox="0 0 1024 1024" role="img" aria-labelledby="title desc">
  <title>Nuviora</title>
  <desc>Nuviora habit tracker logo</desc>
  <rect width="1024" height="1024" rx="210" fill="#FFF8F0"/>
  <circle cx="512" cy="390" r="198" fill="none" stroke="#A87551" stroke-width="34" stroke-linecap="round" stroke-dasharray="840 250" transform="rotate(-18 512 390)"/>
  <path d="M350 424c58 78 151 96 232 45 47-30 83-75 143-82" fill="none" stroke="#A87551" stroke-width="44" stroke-linecap="round"/>
  <circle cx="405" cy="378" r="30" fill="#8C5A3C"/>
  <path d="M704 246l22 48 48 22-48 22-22 48-22-48-48-22 48-22 22-48z" fill="#E7B36D"/>
  <path d="M625 312l13 28 28 13-28 13-13 28-13-28-28-13 28-13 13-28z" fill="#C08552"/>
  <text x="512" y="705" text-anchor="middle" font-family="Georgia, serif" font-size="116" font-weight="700" fill="#4B2E2B">Nuviora</text>
  <text x="512" y="772" text-anchor="middle" font-family="Arial, sans-serif" font-size="34" letter-spacing="5" fill="#8C5A3C">BUILD BETTER DAYS</text>
</svg>
